<svg xmlns="http://www.w3.org/2000/svg" viewBox="0 0 45 45">
  <rect width="45" height="45" rx="8" fill="#1a1a2e"/>
  <g fill="#c8a96e">
    <path d="M 22,10 C 32.5,11 38.5,18 38,39 L 15,39 C 15,30 25,32.5 23,18"/>
    <path d="M 24,18 C 24.384,20.911 18.645,25.174 19.5,28 C 20.555,31.519 29.809,27.924 30,34.5 C 30.111,38.343 29.011,38.607 28,38.5 C 25.5,40.5 17.5,40.5 17,40 C 16.5,39.5 17,34.5 17,34.5 C 20,31 20,28.5 16,25 C 10,20 10,10 22,10 z"/>
    <circle cx="9" cy="25.5" r="0.5" fill="white"/>
    <ellipse cx="14.5" cy="15.5" rx="0.5" ry="1.5" transform="matrix(0.866,0.5,-0.5,0.866,9.693,-5.173)" fill="white"/>
  </g>
</svg>
